<?xml version="1.0" standalone="no"?>
<!DOCTYPE svg PUBLIC "-//W3C//DTD SVG 20010904//EN"
 "http://www.w3.org/TR/2001/REC-SVG-20010904/DTD/svg10.dtd">
<svg version="1.0" xmlns="http://www.w3.org/2000/svg"
 width="192.000000pt" height="192.000000pt" viewBox="0 0 192.000000 192.000000"
 preserveAspectRatio="xMidYMid meet">
<metadata>
Created by potrace 1.11, written by Peter Selinger 2001-2013
</metadata>
<g transform="translate(0.000000,192.000000) scale(0.100000,-0.100000)"
fill="#000000" stroke="none">
<path d="M610 1275 l0 -125 -76 0 c-56 0 -75 -3 -72 -12 3 -9 30 -14 76 -16
l72 -3 0 -118 0 -118 -80 -24 c-87 -26 -91 -32 -61 -88 15 -28 20 -31 27 -18
9 15 91 67 107 67 4 0 6 -73 5 -162 l-3 -163 -70 3 c-74 4 -79 -6 -14 -27 25
-8 41 -21 49 -40 11 -27 14 -28 43 -20 61 17 62 20 67 246 l5 206 60 33 c33
19 65 35 70 38 6 2 7 7 3 11 -4 4 -32 -2 -63 -14 -31 -12 -60 -21 -65 -21 -6
0 -10 44 -10 104 l0 104 75 4 75 3 0 -150 c0 -221 -27 -360 -94 -494 -15 -29
-24 -56 -21 -59 11 -11 73 67 102 127 40 84 62 165 75 279 l12 102 38 0 38 0
0 -204 0 -203 -60 -13 c-33 -7 -60 -16 -60 -19 0 -4 12 -24 26 -45 23 -33 29
-37 38 -24 6 8 74 43 151 77 77 35 144 67 149 72 20 18 -2 18 -70 -1 -113 -33
-104 -48 -104 170 l0 190 40 0 c35 0 40 -3 46 -27 30 -135 51 -200 84 -269 39
-80 105 -165 161 -205 l29 -20 35 37 c19 20 34 38 33 39 -2 1 -19 10 -38 20
-53 27 -114 80 -154 134 -20 27 -36 51 -36 54 0 9 172 127 185 127 31 0 23 21
-16 47 l-42 28 -21 -29 c-12 -16 -43 -56 -70 -89 l-49 -60 -20 38 c-22 45 -57
142 -57 162 0 10 31 13 150 13 114 0 150 3 149 13 0 12 -74 77 -88 77 -3 0
-15 -14 -26 -30 l-20 -30 -213 0 -212 0 2 163 3 162 273 3 c149 1 272 6 272
11 0 5 -19 26 -42 46 l-41 38 -26 -32 -26 -31 -201 0 c-156 0 -210 3 -237 15
-20 8 -39 15 -42 15 -3 0 -5 -48 -5 -107 l0 -107 -39 38 -40 39 -26 -32 c-15
-17 -31 -29 -36 -25 -5 3 -9 49 -9 102 0 90 2 98 23 111 l22 15 -25 7 c-14 4
-40 7 -57 8 l-33 1 0 -125z"/>
<path d="M1290 1170 l-21 -30 -155 0 c-130 0 -154 -2 -154 -15 0 -13 31 -15
220 -15 121 0 220 4 220 8 0 8 -38 45 -72 70 -14 11 -19 8 -38 -18z"/>
<path d="M1821 1114 c0 -11 3 -14 6 -6 3 7 2 16 -1 19 -3 4 -6 -2 -5 -13z"/>
<path d="M1833 1045 c0 -22 2 -30 4 -17 2 12 2 30 0 40 -3 9 -5 -1 -4 -23z"/>
<path d="M1831 885 c-2 -66 -39 -201 -75 -279 -147 -318 -453 -516 -797 -516
-166 0 -335 50 -476 142 -95 62 -225 191 -277 276 -49 78 -58 81 -15 5 164
-293 446 -463 769 -463 377 0 703 236 833 605 29 84 51 199 45 240 -4 26 -5
25 -7 -10z"/>
</g>
</svg>
